<svg xmlns="http://www.w3.org/2000/svg" xmlns:xlink="http://www.w3.org/1999/xlink" viewBox="0 0 109 151" fill="#fff" fill-rule="evenodd" stroke="#000" stroke-linecap="round" stroke-linejoin="round"><style><![CDATA[.B{stroke:none}.C{fill:#fdcc9b}.D{text-anchor:start}.E{font-weight:bold}]]></style><use xlink:href="#A" x=".5" y=".5"/><symbol id="A" overflow="visible"><g class="B"><path d="M97.07 49.818c0-18.214-13.328-31.543-43.094-31.543S10.883 31.603 10.883 49.818s-3.11 66.196 43.094 66.196S97.07 68.033 97.07 49.818z" class="C"/><path d="M25.524 57.814c2.206 1.103 5.748-3.748 13.855.472 1.478.769 2.36-6.58-6.33-6.58-7.525 0-8.858 5.442-7.525 6.108zm56.904 0c-2.206 1.103-5.748-3.748-13.855.472-1.478.769-2.36-6.58 6.331-6.58 7.524 0 8.857 5.442 7.524 6.108z" fill="#262626"/><path d="M52.827 88.874c-4.61 0-6.237-4.871-6.237-3.205s1.333 4.832 7.386 4.832 7.386-3.165 7.386-4.832-3.285 4.705-7.285 2.58z" fill="#fcbc85"/><path d="M53.976 122.01c-5.433 0-10.997.759-16.39 2.055.036.048 5.982 7.719 16.39 7.719 9.638 0 16.045-6.569 16.974-7.58-5.575-1.384-11.344-2.195-16.974-2.195z" fill="#007fff"/><path d="M89.405 14.388S73.412-5.936 40.171 1.727 4.44 29.382 5.44 48.832 12.3 90.41 15.452 89s-1.682-24.965-1.349-27.928 3.332-16.363 23.549-14.363S76.077 38 76.077 38s5.685 12.046 10.197 13.707c9.018 3.318 3.644 36.793 7.178 36.793s23.276-62.449-4.047-74.111z" fill="#262626"/><use xlink:href="#C" fill="#000"/><path d="M53.976 149.999H0c0-11.329 28.431-27.989 53.976-27.989s53.976 16.66 53.976 27.989z" fill="#66b2ff"/><use xlink:href="#C" x="43.5" y="-0.586" fill="#000"/><g fill="#646464"><circle cx="31.39" cy="68.937" r="1.438"/><circle cx="74.64" cy="68.687" r="1.438"/></g><path d="M13.952 67.499q-9.5 0-9.5 9 1.5 13 13 12 0-21-3.5-21z" class="C"/></g><path d="M92.952 67.499q9.5 0 9.5 9-1.5 13-13 12 0-21 3.5-21z" class="B C"/><g class="B"><path d="M53.462 104.63c-2.425 0-3.282-1.109-3.282-.73s.701 1.1 3.886 1.1 3.886-.721 3.886-1.1-1.728 1.071-3.833.587z" fill="#fcbc85"/><path d="M42.452 113.999v9.25q12 10 22.75-.25v-8.5z" class="C"/></g><path d="M64.77 99.085a.84.84 0 0 0-.697-.019 25.76 25.76 0 0 1-9.552 1.933c-5.233 0-9.51-1.914-9.552-1.933-.21-.095-.502-.087-.697.019s-.239.283-.103.419c.142.143 3.532 3.496 10.353 3.496s10.212-3.352 10.353-3.496c.135-.137.092-.312-.103-.419" fill="#f7945e" class="B"/></symbol><defs ><path id="C" d="M28.822 70.476c0-2.831 1.478-5.109 3.315-5.109s3.315 2.279 3.315 5.109-1.479 5.109-3.315 5.109-3.315-2.279-3.315-5.109z"/></defs></svg>