<svg xmlns="http://www.w3.org/2000/svg" xmlns:xlink="http://www.w3.org/1999/xlink" viewBox="0 0 109 154" fill="#fff" fill-rule="evenodd" stroke="#000" stroke-linecap="round" stroke-linejoin="round"><style><![CDATA[.B{stroke:none}.C{fill:#fdcc9b}.D{text-anchor:start}.E{font-weight:bold}]]></style><use xlink:href="#A" x=".5" y=".5"/><symbol id="A" overflow="visible"><g class="B"><path d="M53.976 152.5H0c0-11.329 28.431-27.989 53.976-27.989s53.976 16.66 53.976 27.989z" fill="#f06292"/><path d="M53.976 124.511c-5.433 0-10.997.759-16.39 2.055.036.048 5.982 7.719 16.39 7.719 9.638 0 16.045-6.569 16.974-7.58-5.575-1.384-11.344-2.195-16.974-2.195z" fill="#d81b60"/><path d="M92.952 70q9.5 0 9.5 9-1.5 13-13 12 0-21 3.5-21z" class="C"/></g><path d="M13.952 70q-9.5 0-9.5 9 1.5 13 13 12 0-21-3.5-21z" class="B C"/><g class="B"><path d="M97.07 52.318c0-18.214-13.328-31.543-43.094-31.543S10.883 34.103 10.883 52.318s-3.11 66.196 43.094 66.196S97.07 70.533 97.07 52.318z" class="C"/><path d="M25.524 60.315c2.206 1.103 5.748-3.748 13.855.472 1.478.769 2.36-6.58-6.33-6.58-7.525 0-8.858 5.442-7.525 6.108zm56.904 0c-2.206 1.103-5.748-3.748-13.855.472-1.478.769-2.36-6.58 6.331-6.58 7.524 0 8.857 5.442 7.524 6.108z" fill="#262626"/><path d="M52.827 91.375c-4.61 0-6.237-4.871-6.237-3.205s1.333 4.832 7.386 4.832 7.386-3.165 7.386-4.832-3.285 4.705-7.285 2.58z" fill="#fcbc85"/><g fill="#000"><use xlink:href="#C"/><use xlink:href="#C" x="43.5" y="-0.585"/></g><g fill="#646464"><circle cx="31.39" cy="71.438" r="1.438"/><circle cx="74.64" cy="71.188" r="1.438"/></g><path d="M53.462 107.13c-2.425 0-3.282-1.109-3.282-.73s.701 1.1 3.886 1.1 3.886-.721 3.886-1.1-1.728 1.071-3.833.587z" fill="#fcbc85"/><path d="M42.452 116.5v9.25q12 10 22.75-.25V117z" class="C"/></g><g class="B"><path d="M64.77 101.586a.84.84 0 0 0-.697-.019 25.76 25.76 0 0 1-9.552 1.933c-5.233 0-9.51-1.914-9.552-1.933-.21-.095-.502-.087-.697.019s-.239.283-.103.419c.142.143 3.532 3.496 10.353 3.496s10.212-3.352 10.353-3.496c.135-.137.092-.312-.103-.419" fill="#f7945e"/><path d="M94.438 69.153c0 2.128-1.093 11.703-1.093 13.831 1.64 1.064 2.187 0 2.734-2.128 3.28-20.214 4.374-25.534 4.374-34.576-1.093-16.49-1.64-32.449-13.121-31.917C85.69 7.447 65.462.532 40.859 0c-3.28 1.596 11.481 7.979 7.654 8.511C37.032 6.915 25.004 6.915 15.71 9.575c-3.28 1.596 13.121 5.32 9.294 7.447C14.617 20.746 6.963 27.661 8.056 40.96c.547 6.383 0 22.874 3.827 42.556.547 1.064 2.734.532 2.734-1.596s-.547-18.086 0-21.278c1.093-15.426 13.668-17.554 23.509-15.426 25.149 3.192 39.911-1.064 44.284-4.255 8.748 4.255 13.121 12.767 12.028 28.193z" fill="#262626"/></g></symbol><defs ><path id="C" d="M28.821 72.976c0-2.831 1.478-5.109 3.315-5.109s3.315 2.279 3.315 5.109-1.479 5.109-3.315 5.109-3.315-2.279-3.315-5.109z"/></defs></svg>